<?xml version="1.0" encoding="utf-8"?>
<!-- Generator: Adobe Illustrator 27.0.1, SVG Export Plug-In . SVG Version: 6.00 Build 0)  -->
<svg version="1.1" id="Layer_1" xmlns="http://www.w3.org/2000/svg" xmlns:xlink="http://www.w3.org/1999/xlink" x="0px" y="0px"
	 viewBox="0 0 841.89 373.7" style="enable-background:new 0 0 841.89 373.7;" xml:space="preserve">
<style type="text/css">
	.st0{fill:#3B59A8;}
	.st1{fill:#010101;stroke:#000000;stroke-width:0.25;stroke-miterlimit:10;}
	.st2{fill:#010101;stroke:#000000;stroke-width:0.1;stroke-miterlimit:10;}
	.st3{fill:#010101;stroke:#000000;stroke-miterlimit:10;}
	.st4{fill:#A09F9F;}
</style>
<g>
	<path class="st0" d="M282.62,20.95h167.31v62.98H345.13v60.16h104.81v62.98H345.13V358.4h-62.51V20.95z"/>
	<path class="st0" d="M580.49,48.12c0,22.09-17.86,39.95-39.95,39.95c-23.03,0-39.95-20.21-39.95-43.24
		c0-21.62,18.33-38.07,39.95-38.07C563.1,6.76,580.49,25.57,580.49,48.12z M509.29,119.26h62.51v240.28h-62.51V119.26z"/>
	<path class="st0" d="M777.57,63.72C740.91,28,699.08,20.95,639.86,20.95h-16.65v62.98h26.05c73.32,0,112.33,38.07,112.33,108.56
		c0,32.9-9.4,60.16-24.91,77.08c-19.74,21.15-44.65,25.85-79.9,25.85h-33.57v62.98h17.59c49.35,0,89.3-0.47,127.84-30.55
		c36.19-28.2,57.81-76.14,57.81-133.95C826.45,140.33,808.12,93.33,777.57,63.72z"/>
	<path class="st1" d="M166.6,145.71v-28.43c0-1.58-0.46-2.87-1.03-2.87c-0.57,0-1.03,1.28-1.03,2.87v28.43
		c0,1.58,0.46,2.87,1.03,2.87S166.6,147.3,166.6,145.71z"/>
	<path class="st1" d="M166.6,193.01v-23.17c0-1.58-0.46-2.87-1.03-2.87c-0.57,0-1.03,1.28-1.03,2.87v23.17
		c0,1.59,0.46,2.87,1.03,2.87C166.14,195.88,166.6,194.6,166.6,193.01L166.6,193.01z"/>
	<path class="st1" d="M166.6,263.91v-36.74c0-2.51-0.46-4.55-1.03-4.55c-0.57,0-1.03,2.04-1.03,4.55v36.74
		c0,2.51,0.46,4.55,1.03,4.55C166.14,268.45,166.6,266.42,166.6,263.91L166.6,263.91z"/>
	<path class="st1" d="M166.6,88.7V51.96c0-2.51-0.46-4.55-1.03-4.55c-0.57,0-1.03,2.04-1.03,4.55v36.74c0,2.51,0.46,4.55,1.03,4.55
		C166.14,93.25,166.6,91.22,166.6,88.7L166.6,88.7z"/>
	<path class="st2" d="M204.13,220.99c0-2.61-2.12-4.73-4.73-4.73c-1.23,0-2.34,0.48-3.18,1.25l-21.69-12.46l27.3-25.53
		c1.28,0.71,2.81,0.81,4.14,0.24l7.18,12.86c-1.1,4.26-2.29,7.86-3.56,10.39c-1.61,3.23-4.01,6.7-6.9,10.15
		c1.86,0.69,3.38,2.03,4.34,3.74c3.22-3.83,5.89-7.7,7.7-11.33c8.14-16.27,12.92-67.65,11.58-78.92
		c-1.15-9.63-4.26-22.42-12.27-33.04c-0.9,1.73-2.35,3.11-4.16,3.86c2.33,3.13,4.37,6.8,6.08,11.01l-10.49,15.53
		c-1.42-0.41-2.97-0.15-4.19,0.78l-26.57-18.48l28.54-13.3c0.87,0.94,2.09,1.53,3.47,1.53c2.61,0,4.73-2.12,4.73-4.73
		s-2.12-4.73-4.73-4.73s-4.73,2.12-4.73,4.73c0,0.2,0.03,0.4,0.06,0.6l-29.37,13.68c-0.77-1.57-2.37-2.66-4.24-2.66
		c-2.61,0-4.73,2.12-4.73,4.73c0,2.61,2.12,4.73,4.73,4.73c1.82,0,3.38-1.04,4.17-2.55l27.02,18.79c-0.34,1.08-0.28,2.26,0.19,3.31
		l-27.61,24.5c-0.86-1.15-2.22-1.9-3.77-1.9c-2.61,0-4.73,2.12-4.73,4.73c0,2.61,2.12,4.73,4.73,4.73c2.04,0,3.76-1.3,4.43-3.11
		l26.74,14.71c-0.32,1.1-0.23,2.28,0.27,3.33L172.1,203.4c-0.87-1.07-2.17-1.76-3.66-1.76c-2.61,0-4.73,2.12-4.73,4.73
		c0,2.61,2.12,4.73,4.73,4.73c2.22,0,4.08-1.54,4.58-3.61l21.76,12.5c-0.07,0.32-0.11,0.66-0.11,1c0,2.61,2.12,4.73,4.73,4.73
		C202.01,225.72,204.13,223.6,204.13,220.99L204.13,220.99z M214.14,188.51l-5.96-10.68c0.77-1.27,0.89-2.82,0.35-4.18l9.49-7.79
		C216.97,173.79,215.66,181.73,214.14,188.51L214.14,188.51z M217.17,111.76c1.55,4.56,2.74,9.7,3.43,15.56
		c0.3,2.47,0.24,7.29-0.13,13.38l-12.01-10.32c0.67-1.57,0.44-3.42-0.67-4.8L217.17,111.76z M174.3,156.9l27.42-24.33
		c1.51,0.89,3.39,0.89,4.88-0.03l13.64,11.74c-0.38,5.3-0.96,11.3-1.7,17.44l-11.83,9.71c-1.68-1.1-3.9-0.99-5.49,0.27L174.3,156.9z
		"/>
	<path class="st3" d="M250.72,283.61c-0.34-0.12-34.11-11.88-43.17-27.02c-2.04-5.73-5.49-18.39-5.12-28.51
		c-1.2,0.67-2.56,1.09-4.03,1.09c-0.58,0-1.15-0.06-1.7-0.18c-0.22,13.61,5.22,28.9,5.54,29.8l0.22,0.47
		c9.92,17.07,44.9,29.26,46.39,29.77c0.31,0.11,0.63,0.16,0.93,0.16c1.19,0,2.3-0.75,2.71-1.94
		C253.01,285.76,252.22,284.12,250.72,283.61L250.72,283.61z"/>
	<path class="st3" d="M170.28,73.64l-0.58-0.03c-1.91-0.08-1.87-0.02-3.78-0.05l-1.37,0.04c-42.18,1.26-52.43,33.61-54.73,53.05
		c-1.35,11.29,3.43,62.66,11.58,78.93c1.97,3.94,4.94,8.19,8.57,12.35c5.65,9.37,0.13,30.53-2.7,38.44
		c-9.03,15.14-42.82,26.9-43.15,27.03c-1.51,0.51-2.3,2.15-1.79,3.63c0.42,1.2,1.53,1.95,2.72,1.95c0.31,0,0.62-0.07,0.93-0.15
		c1.48-0.51,36.47-12.71,46.38-29.78l0.22-0.46c0.35-0.97,6.51-18.31,5.42-32.52c1.26,1.13,2.55,2.24,3.87,3.28
		c8.32,6.64,16.25,10.67,22.67,11.62l0.46-0.02c0.13,0,0.84,0.15,1.75,0.13c1.82-0.04,2.39,0.18,3.52-0.09v-0.04
		c6.4-1,14.26-5,22.54-11.6c0.51-0.4,1-0.86,1.51-1.28c-1.7-0.95-2.61-2.9-3.28-4.76l-0.4,0.4c-0.47,0.38-0.93,0.77-1.39,1.15
		c-6.95,5.54-13.77,9.17-18.97,10.23l-5.05,0.02h-0.2c-5.23-1.04-12.58-4.67-19.57-10.25c-3.96-3.14-7.62-6.64-10.76-10.18
		c-0.2-0.31-0.38-0.62-0.6-0.93c-0.24-0.31-0.53-0.58-0.84-0.75c-2.81-3.39-5.16-6.8-6.73-9.96c-7.39-14.77-12.24-65.4-11.03-75.68
		c2.55-21.41,13.24-46.78,49.04-47.96l0.59-0.07c1.29-0.1,1.07-0.11,2.01-0.11c1.12,0,0.89-0.08,2.02,0.07l1.12,0.07
		c9.08,0.38,18.8,2.41,27.21,7.84c0.66-1.9,1.95-3.48,3.65-4.47C193.48,77.56,183.43,74.13,170.28,73.64z"/>
	<g>
		<path class="st4" d="M38.35,336.58v-32.72H16.54v43.63c0,6.54,4.36,10.91,10.91,10.91h43.63v-21.82H38.35z"/>
		<path class="st4" d="M38.35,41.96l32.72,0l0-21.82l-43.63,0c-6.54,0-10.91,4.36-10.91,10.91l0,43.63l21.82,0L38.35,41.96z"/>
		<rect x="16.54" y="73.05" class="st4" width="21.82" height="230.81"/>
	</g>
</g>
</svg>
